<svg viewBox="0 0 22 16" xmlns="http://www.w3.org/2000/svg" xmlns:xlink="http://www.w3.org/1999/xlink" width="22.000000" height="16.000000" fill="none" customFrame="#000000">
	<path id="icon" d="M19 0C20.6569 0 22 1.34315 22 3L22 13C22 14.6569 20.6569 16 19 16L3 16C1.34315 16 0 14.6569 0 13L0 3C0 1.34315 1.34315 0 3 0L19 0ZM18.2529 2L3.74718 2L10.3804 7.23673C10.7437 7.52356 11.2563 7.52356 11.6197 7.23673L18.2529 2ZM2 3.1688L2 13C2 13.5523 2.44772 14 3 14L19 14C19.5523 14 20 13.5523 20 13L20 3.16882L12.8589 8.8065C11.769 9.66697 10.231 9.66697 9.14108 8.8065L2 3.1688Z" fill="currentColor" fill-rule="evenodd" />
</svg>
